<svg version="1.1" id="Layer_1" fill="currentColor" xmlns="http://www.w3.org/2000/svg" height="30" width="30" xmlns:xlink="http://www.w3.org/1999/xlink" x="0px" y="0px" viewBox="0 0 123 123" style="enable-background:new 0 0 122.88 97.04" xml:space="preserve">

 <g>
  <g stroke="null" id="svg_21">
   <path stroke="null" id="svg_2" d="m2.38,0l18.33,0l0,6.02403l-15.95,0l0,15.74347l-4.76,0l0,-18.75549c0,-1.65787 1.07,-3.01202 2.38,-3.01202l0,0zm15.54,20.53992l8.26,0l0,81.72939l-8.26,0l0,-81.72939l0,0zm51.49,0l5.9,0l0,81.72939l-5.9,0l0,-81.72939l0,0zm-11.43,0l4.42,0l0,81.72939l-4.42,0l0,-81.72939l0,0zm-24.79,0l2.51,0l0,81.72939l-2.51,0l0,-81.72939l0,0zm64.4,0l7.37,0l0,81.72939l-7.37,0l0,-81.72939l0,0zm-15.27,0l8.26,0l0,81.72939l-8.26,0l0,-81.72939l0,0zm-39.61,0l8.26,0l0,81.72939l-8.26,0l0,-81.72939l0,0zm-37.95,80.5018l0,15.74347l15.95,0l0,6.02403l-18.33,0c-1.31,0 -2.38,-1.34149 -2.38,-3.01202l0,-18.75549l4.76,0l0,0zm98.64,-101.04172l17.1,0c1.31,0 2.38,1.35414 2.38,3.01202l0,18.75549l-4.76,0l0,-15.74347l-14.72,0l0,-6.02403l0,0zm19.48,101.04172l0,18.75549c0,1.65787 -1.07,3.01202 -2.38,3.01202l-17.1,0l0,-6.02403l14.72,0l0,-15.74347l4.76,0l0,0z"/>
   <line stroke="#000" stroke-width="6" stroke-linecap="undefined" stroke-linejoin="undefined" id="svg_4" y2="61.31315" x2="118" y1="61.56685" x1="5" fill="none"/>
   <rect stroke="#000" id="svg_12" height="4.5378" width="7.73107" y="59.253" x="18.24469" fill="#ffffff"/>
   <rect stroke="#000" id="svg_13" height="4.36974" width="6.72267" y="59.08493" x="98.07643" fill="#ffffff"/>
   <rect stroke="#000" id="svg_14" height="4.36974" width="7.73107" y="59.253" x="82.61429" fill="#ffffff"/>
   <rect stroke="#000" id="svg_15" height="0" width="0.16807" y="76.56388" x="96.56383" fill="#ffffff"/>
   <rect stroke="#000" id="svg_16" height="4.5378" width="2.0168" y="59.253" x="33.3707" fill="#ffffff"/>
   <rect stroke="#000" id="svg_17" height="4.5378" width="3.86554" y="59.08493" x="58.41266" fill="#ffffff"/>
   <rect stroke="#000" id="svg_18" height="4.5378" width="7.73107" y="59.08493" x="42.95051" fill="#ffffff"/>
   <rect stroke="#000" id="svg_19" height="4.70587" width="5.54621" y="59.08493" x="69.67314" fill="#ffffff"/>
  </g>
 </g>
</svg>